<svg width="33" height="33" viewBox="0 0 33 33" fill="none" xmlns="http://www.w3.org/2000/svg">
<path d="M23.7053 6.76491L13.3571 10.2143C9.32348 11.5588 7.30665 12.2311 7.10356 13.4106C7.06489 13.6352 7.06489 13.8648 7.10356 14.0894C7.30665 15.2689 9.32348 15.9412 13.3571 17.2857C14.1599 17.5533 14.5613 17.6871 14.8658 17.9553C14.9291 18.0111 14.9889 18.0709 15.0447 18.1342C15.3129 18.4387 15.4467 18.8401 15.7143 19.6429C17.0588 23.6765 17.7311 25.6933 18.9106 25.8964C19.1352 25.9351 19.3648 25.9351 19.5894 25.8964C20.7689 25.6933 21.4412 23.6765 22.7857 19.6429L22.7857 19.6429L26.2351 9.29473C26.787 7.63894 27.063 6.81105 26.626 6.37403C26.189 5.93702 25.3611 6.21298 23.7053 6.76491Z" fill="white" stroke="white"/>
</svg>
