<svg width="60" height="14" viewBox="0 0 60 14" fill="none" xmlns="http://www.w3.org/2000/svg">
<path d="M13.3405 6.63764C13.3279 5.59797 14.4873 5.09217 14.5403 5.06862C13.8837 4.35798 12.866 4.26089 12.5083 4.25314C11.6535 4.18637 10.8244 4.63282 10.389 4.63282C9.94484 4.63282 9.27431 4.2596 8.55163 4.27056C7.62166 4.28121 6.75167 4.68088 6.27452 5.30152C5.2898 6.56699 6.02421 8.42665 6.96764 9.44954C7.43958 9.95083 7.99104 10.5099 8.71285 10.4902C9.41901 10.4689 9.6828 10.1563 10.535 10.1563C11.3793 10.1563 11.627 10.4902 12.3632 10.4776C13.1211 10.4689 13.5982 9.97438 14.0536 9.4689C14.599 8.89503 14.818 8.32923 14.8267 8.3002C14.8093 8.29568 13.3553 7.88343 13.3405 6.63764ZM11.9499 3.58025C12.3297 3.22767 12.5896 2.748 12.5174 2.26123C11.9677 2.27929 11.2802 2.54349 10.8844 2.88832C10.5341 3.19219 10.2212 3.69025 10.302 4.15863C10.9196 4.19282 11.5536 3.92734 11.9499 3.58025Z" fill="white"/>
<path d="M23.5713 10.4184H22.5844L22.0438 9.15746H20.1647L19.6498 10.4184H18.689L20.5511 6.12556H21.7009L23.5713 10.4184ZM21.8808 8.62844L21.3919 7.50748C21.3402 7.39297 21.2429 7.12329 21.1004 6.69878H21.083C21.0256 6.88136 20.9339 7.15103 20.8083 7.50748L20.3277 8.62844H21.8808ZM28.3506 8.83263C28.3506 9.35907 28.1581 9.7752 27.7726 10.0807C27.4276 10.3526 26.9987 10.4884 26.4872 10.4884C25.9349 10.4884 25.5377 10.3423 25.2965 10.0494V11.6736H24.37V8.34038C24.37 8.00973 24.3583 7.6707 24.3357 7.32297H25.1505L25.2022 7.81361H25.2196C25.5286 7.44393 25.9974 7.2591 26.6267 7.2591C27.1186 7.2591 27.5293 7.40329 27.8578 7.69199C28.1859 7.98135 28.3506 8.36134 28.3506 8.83263ZM27.4067 8.85779C27.4067 8.5565 27.3155 8.30812 27.1321 8.11231C26.9318 7.90877 26.6628 7.80683 26.3255 7.80683C26.097 7.80683 25.8892 7.86361 25.7037 7.97554C25.5177 8.08844 25.396 8.23586 25.3391 8.41844C25.3137 8.48672 25.2992 8.55699 25.2961 8.62779V9.14424C25.2961 9.36907 25.3891 9.55907 25.5751 9.71455C25.761 9.86939 26.0027 9.94713 26.2999 9.94713C26.6489 9.94713 26.9205 9.84681 27.1147 9.64778C27.3094 9.44811 27.4067 9.18488 27.4067 8.85779ZM33.1469 8.83263C33.1469 9.35907 32.9544 9.7752 32.5689 10.0807C32.2234 10.3526 31.795 10.4884 31.283 10.4884C30.7307 10.4884 30.3335 10.3423 30.0923 10.0494V11.6736H29.1658V8.34038C29.1658 8.00973 29.1541 7.6707 29.1315 7.32297H29.9463L29.998 7.81361H30.0154C30.324 7.44393 30.7929 7.2591 31.4225 7.2591C31.914 7.2591 32.3247 7.40329 32.6541 7.69199C32.9817 7.98135 33.1469 8.36134 33.1469 8.83263ZM32.2026 8.85779C32.2026 8.5565 32.1109 8.30812 31.9275 8.11231C31.7272 7.90877 31.459 7.80683 31.1218 7.80683C30.8932 7.80683 30.6855 7.86361 30.4991 7.97554C30.3131 8.08844 30.1918 8.23586 30.1349 8.41844C30.1067 8.5036 30.0915 8.57295 30.0915 8.62779V9.14424C30.0915 9.36907 30.1849 9.55907 30.37 9.71455C30.556 9.86907 30.7976 9.94713 31.0957 9.94713C31.4451 9.94713 31.7167 9.84681 31.9105 9.64778C32.1052 9.44811 32.2026 9.18488 32.2026 8.85779ZM38.5094 9.21424C38.5094 9.57972 38.3373 9.87681 37.9953 10.1062C37.619 10.3565 37.0936 10.482 36.42 10.482C35.7977 10.482 35.2988 10.3929 34.9225 10.2145L35.1367 9.64133C35.5431 9.82004 35.9894 9.90907 36.4752 9.90907C36.8246 9.90907 37.0962 9.85036 37.29 9.73391C37.4843 9.61714 37.5825 9.46101 37.5825 9.26617C37.5825 9.09166 37.5012 8.94553 37.3417 8.8265C37.1814 8.70779 36.9163 8.59715 36.5439 8.49553C35.5313 8.21521 35.0246 7.80522 35.0246 7.26587C35.0246 6.91362 35.2037 6.62523 35.5609 6.39975C35.9181 6.17459 36.3918 6.06201 36.981 6.06201C37.5073 6.06201 37.9458 6.13008 38.2938 6.26588L38.0614 6.82652C37.7337 6.69491 37.3639 6.6291 36.9502 6.6291C36.6234 6.6291 36.367 6.68878 36.1836 6.80749C36.0293 6.91362 35.9511 7.04297 35.9511 7.19652C35.9511 7.36587 36.0402 7.50651 36.2175 7.61683C36.3713 7.71845 36.6521 7.82909 37.0579 7.9478C37.556 8.09683 37.9219 8.27038 38.1561 8.46973C38.3921 8.66908 38.5094 8.91779 38.5094 9.21424ZM41.5804 7.83909H40.5592V9.34198C40.5592 9.72423 40.7391 9.91488 41.0998 9.91488C41.2654 9.91488 41.4027 9.90455 41.5113 9.88294L41.537 10.4052C41.3545 10.4558 41.1142 10.4813 40.8165 10.4813C40.4506 10.4813 40.1646 10.3984 39.9582 10.2326C39.7527 10.0668 39.6492 9.78907 39.6492 9.39811V7.8378H39.0409V7.32168H39.6492V6.75491L40.5592 6.55104V7.32168H41.5804V7.83909ZM46.179 8.84521C46.179 9.32101 45.9956 9.71165 45.6297 10.0171C45.2469 10.3316 44.7375 10.4884 44.1027 10.4884C43.4899 10.4884 43.0028 10.3378 42.6395 10.0368C42.2762 9.7352 42.0945 9.3552 42.0945 8.89682C42.0945 8.41715 42.2823 8.02425 42.6564 7.71877C43.0315 7.41297 43.5364 7.26006 44.1713 7.26006C44.7832 7.26006 45.2747 7.41103 45.6467 7.71232C46.0021 8.00457 46.179 8.38199 46.179 8.84521ZM45.2186 8.86101C45.2186 8.57747 45.136 8.33425 44.9705 8.1307C44.7762 7.8849 44.4981 7.76199 44.1378 7.76199C43.7667 7.76199 43.4821 7.8849 43.2883 8.1307C43.1223 8.33425 43.0397 8.58166 43.0397 8.87392C43.0397 9.15779 43.1223 9.40165 43.2883 9.60456C43.4886 9.85036 43.768 9.97326 44.13 9.97326C44.4842 9.97326 44.7619 9.84778 44.9627 9.59843C45.133 9.39004 45.2186 9.14521 45.2186 8.86101ZM49.1918 7.9278C49.0955 7.91489 48.9977 7.90851 48.8998 7.90877C48.5739 7.90877 48.3218 7.99973 48.1445 8.18296C47.9907 8.34425 47.9133 8.54811 47.9133 8.79424V10.4184H46.9868V8.29779C46.9877 7.97285 46.9787 7.64793 46.9599 7.32329H47.7669L47.8008 7.91554H47.8264C47.9246 7.71199 48.0785 7.5478 48.2897 7.4249C48.483 7.31751 48.7179 7.25935 48.9593 7.2591C49.0449 7.2591 49.1223 7.26361 49.191 7.27168L49.1918 7.9278ZM53.3354 8.72424C53.3377 8.82879 53.3264 8.93326 53.3015 9.03617H50.522C50.5324 9.34198 50.6672 9.57617 50.9253 9.73746C51.1595 9.88133 51.4624 9.95358 51.8344 9.95358C52.2459 9.95358 52.6214 9.9052 52.959 9.80746L53.1042 10.2845C52.7096 10.4123 52.2438 10.4758 51.7062 10.4758C51.0596 10.4758 50.552 10.3345 50.1826 10.0526C49.8141 9.77036 49.6294 9.39101 49.6294 8.91585C49.6294 8.44941 49.8011 8.0607 50.1448 7.7507C50.5046 7.41974 50.9909 7.25426 51.6028 7.25426C52.2038 7.25426 52.6588 7.41974 52.9677 7.7507C53.2124 8.01296 53.3354 8.33812 53.3354 8.72424ZM52.4519 8.54586C52.4584 8.34167 52.3976 8.16586 52.272 8.01715C52.1116 7.82554 51.8648 7.73006 51.5341 7.73006C51.2312 7.73006 50.9844 7.82328 50.7967 8.01038C50.6424 8.15909 50.5507 8.33779 50.5224 8.54521L52.4519 8.54586Z" fill="white"/>
<path d="M19.8947 4.60865C19.637 4.60865 19.4141 4.59929 19.2285 4.58349V2.50802C19.488 2.47826 19.7503 2.4636 20.0129 2.46415C21.0754 2.46415 21.5647 2.85221 21.5647 3.48479C21.5647 4.21446 20.9868 4.60865 19.8947 4.60865ZM20.0503 2.73028C19.9069 2.73028 19.7848 2.73673 19.6835 2.75221V4.32994C19.7383 4.33639 19.8434 4.33929 19.9912 4.33929C20.6873 4.33929 21.0837 4.0451 21.0837 3.49414C21.0837 3.00286 20.7252 2.73028 20.0503 2.73028ZM23.0896 4.62445C22.4908 4.62445 22.1027 4.29252 22.1027 3.84188C22.1027 3.37221 22.499 3.03737 23.1235 3.03737C23.7136 3.03737 24.1104 3.3535 24.1104 3.81704C24.1104 4.29252 23.7015 4.62445 23.0896 4.62445ZM23.107 3.28447C22.778 3.28447 22.5673 3.51285 22.5673 3.8322C22.5673 4.14543 22.7824 4.37381 23.1026 4.37381C23.4229 4.37381 23.638 4.12962 23.638 3.82575C23.638 3.51608 23.4273 3.28447 23.107 3.28447ZM27.5252 3.06866L26.8842 4.58994H26.4666L26.2011 3.9293C26.1351 3.7677 26.0801 3.60373 26.0364 3.43801H26.0277C25.9942 3.60382 25.9308 3.76995 25.8634 3.9293L25.581 4.58994H25.159L24.5558 3.06866H25.0238L25.2559 3.79188C25.3107 3.96414 25.3567 4.12672 25.395 4.28026H25.4037C25.4371 4.1522 25.4919 3.9922 25.5723 3.79511L25.8634 3.06899H26.2345L26.5131 3.77962C26.5805 3.95188 26.6352 4.12091 26.6778 4.28059H26.69C26.7195 4.12414 26.766 3.95801 26.829 3.77962L27.078 3.06899L27.5252 3.06866ZM29.8849 4.58994H29.4294V3.7164C29.4294 3.44737 29.2904 3.31253 29.0162 3.31253C28.7463 3.31253 28.5608 3.48479 28.5608 3.68511V4.58994H28.1053V3.5035C28.1053 3.36898 28.101 3.22479 28.0884 3.06834H28.4891L28.5103 3.30318H28.523C28.6455 3.1406 28.8941 3.03737 29.1726 3.03737C29.6028 3.03737 29.8853 3.28156 29.8853 3.67898L29.8849 4.58994ZM31.1408 4.58994H30.6849V2.37061H31.1408V4.58994ZM32.8012 4.62445C32.2028 4.62445 31.8143 4.29252 31.8143 3.84188C31.8143 3.37221 32.2107 3.03737 32.8347 3.03737C33.4253 3.03737 33.8216 3.3535 33.8216 3.81704C33.822 4.29252 33.4127 4.62445 32.8012 4.62445ZM32.8182 3.28447C32.4892 3.28447 32.2784 3.51285 32.2784 3.8322C32.2784 4.14543 32.494 4.37381 32.8134 4.37381C33.1341 4.37381 33.3488 4.12962 33.3488 3.82575C33.3492 3.51608 33.1389 3.28447 32.8182 3.28447ZM35.6172 4.58994L35.5842 4.41478H35.572C35.4329 4.55574 35.23 4.62445 34.9727 4.62445C34.6055 4.62445 34.3448 4.43349 34.3448 4.17672C34.3448 3.80124 34.7833 3.60704 35.5424 3.60704V3.57898C35.5424 3.37866 35.3995 3.27834 35.117 3.27834C34.9149 3.27834 34.7376 3.31608 34.5816 3.39124L34.4891 3.16898C34.6785 3.08124 34.9149 3.03737 35.1926 3.03737C35.728 3.03737 35.9983 3.24705 35.9983 3.66672V4.22704C35.9983 4.38058 36.0074 4.49962 36.0279 4.59026L35.6172 4.58994ZM35.5546 3.8322C35.0488 3.8322 34.795 3.92317 34.795 4.13897C34.795 4.29865 34.9258 4.37671 35.1075 4.37671C35.3391 4.37671 35.5546 4.24542 35.5546 4.06704V3.8322ZM38.2098 4.58994L38.1885 4.34575H38.1759C38.0451 4.53026 37.8252 4.62445 37.518 4.62445C37.0239 4.62445 36.658 4.30188 36.658 3.84801C36.658 3.37221 37.0373 3.03705 37.5553 3.03705C37.8296 3.03705 38.0238 3.10576 38.1333 3.24382H38.1424V2.37061H38.5983V4.17994C38.5983 4.32704 38.6031 4.46478 38.6152 4.58994H38.2098ZM38.1424 3.69479C38.1424 3.48188 37.9525 3.30027 37.6627 3.30027C37.325 3.30027 37.1186 3.52253 37.1186 3.83543C37.1186 4.1422 37.3328 4.3522 37.6536 4.3522C37.9399 4.3522 38.1424 4.16736 38.1424 3.94833V3.69479ZM41.4886 4.62445C40.8902 4.62445 40.5021 4.29252 40.5021 3.84188C40.5021 3.37221 40.8984 3.03737 41.5225 3.03737C42.113 3.03737 42.5094 3.3535 42.5094 3.81704C42.5098 4.29252 42.1009 4.62445 41.4886 4.62445ZM41.5055 3.28447C41.177 3.28447 40.9662 3.51285 40.9662 3.8322C40.9662 4.14543 41.1813 4.37381 41.5012 4.37381C41.8219 4.37381 42.0366 4.12962 42.0366 3.82575C42.0374 3.51608 41.8267 3.28447 41.5055 3.28447ZM44.9586 4.58994H44.5027V3.7164C44.5027 3.44737 44.3636 3.31253 44.0894 3.31253C43.8196 3.31253 43.6344 3.48479 43.6344 3.68511V4.58994H43.1786V3.5035C43.1786 3.36898 43.1742 3.22479 43.1616 3.06834H43.5623L43.5836 3.30318H43.5962C43.7183 3.1406 43.9673 3.03705 44.2454 3.03705C44.6757 3.03705 44.9586 3.28124 44.9586 3.67866V4.58994ZM48.0227 3.32221H47.5216V4.06091C47.5216 4.24897 47.6094 4.34284 47.7867 4.34284C47.8671 4.34284 47.9344 4.33639 47.9888 4.32704L48.0014 4.58381C47.9132 4.60897 47.795 4.62155 47.6481 4.62155C47.2891 4.62155 47.0744 4.47445 47.0744 4.0893V3.32221H46.7755V3.06866H47.0744V2.78996L47.5216 2.68963V3.06834H48.0227V3.32221ZM50.4336 4.58994H49.9786V3.72285C49.9786 3.45059 49.84 3.31285 49.5654 3.31285C49.3294 3.31285 49.1095 3.43188 49.1095 3.67285V4.58994H48.6545V2.37061H49.1095V3.28447H49.1186C49.262 3.11866 49.4698 3.03705 49.7348 3.03705C50.1685 3.03705 50.4336 3.28737 50.4336 3.68511V4.58994ZM52.9037 3.91059H51.537C51.5457 4.19865 51.8025 4.36123 52.1827 4.36123C52.3848 4.36123 52.5708 4.33607 52.7351 4.2893L52.8059 4.52413C52.6121 4.58671 52.3839 4.618 52.1184 4.618C51.4774 4.618 51.0981 4.31736 51.0981 3.85124C51.0981 3.38479 51.4866 3.03415 52.0671 3.03415C52.5908 3.03415 52.9193 3.32221 52.9193 3.75737C52.9223 3.80872 52.917 3.86015 52.9037 3.91059ZM52.4861 3.66962C52.4861 3.43479 52.3266 3.26898 52.0354 3.26898C51.7738 3.26898 51.567 3.43801 51.5374 3.66962H52.4861Z" fill="white"/>
</svg>
