<svg width="73" height="73" viewBox="0 0 73 73" fill="none" xmlns="http://www.w3.org/2000/svg">
<path d="M36.3219 72.95C56.3391 72.95 72.5662 56.7229 72.5662 36.7057C72.5662 16.6885 56.3391 0.461426 36.3219 0.461426C16.3048 0.461426 0.0776367 16.6885 0.0776367 36.7057C0.0776367 56.7229 16.3048 72.95 36.3219 72.95Z" fill="#616161"/>
<path d="M36.3219 59.7695C23.5824 59.7695 13.2582 49.4453 13.2582 36.7057C13.2582 23.9662 23.5824 13.642 36.3219 13.642C42.6888 13.642 48.454 16.2238 52.6304 20.3972L61.9499 11.0777C55.3903 4.5181 46.3278 0.461426 36.3219 0.461426C16.3043 0.461426 0.0776367 16.6881 0.0776367 36.7057C0.0776367 56.7233 16.3043 72.95 36.3219 72.95C46.3307 72.95 55.3903 68.8933 61.9529 62.3367L52.6333 53.0171C48.454 57.1877 42.6888 59.7695 36.3219 59.7695Z" fill="#9E9E9E"/>
<path d="M59.3854 36.7057H47.8521C47.8521 30.3389 42.6885 25.1724 36.3187 25.1724C29.949 25.1724 24.7883 30.3359 24.7883 36.7057C24.7883 39.8073 26.015 42.6199 28.0097 44.6964L28.001 44.7051L42.2796 58.9838L42.2826 58.9867C52.1307 56.3582 59.3854 47.3804 59.3854 36.7057Z" fill="#424242"/>
<path d="M72.5632 36.7056H59.3827C59.3827 47.3803 52.125 56.3581 42.2827 58.9866L52.4609 69.1648C64.3768 63.2273 72.5632 50.9229 72.5632 36.7056Z" fill="#616161"/>
<path d="M36.3219 72.535C16.3744 72.535 0.19446 56.4193 0.0805573 36.498C0.0805573 36.5681 0.0776367 36.6353 0.0776367 36.7054C0.0776367 56.723 16.3043 72.9497 36.3219 72.9497C56.3395 72.9497 72.5662 56.723 72.5662 36.7054C72.5662 36.6353 72.5633 36.5681 72.5633 36.498C72.4494 56.4193 56.2665 72.535 36.3219 72.535Z" fill="#212121" fill-opacity="0.1"/>
<path d="M42.2861 58.9866L42.6074 59.3079C52.2862 56.5742 59.3861 47.6782 59.3861 37.1174V36.7056C59.3861 47.3803 52.1285 56.3581 42.2861 58.9866Z" fill="white" fill-opacity="0.05"/>
<path d="M65.976 33.4097H36.3205C34.501 33.4097 33.0261 34.8846 33.0261 36.7041C33.0261 38.5236 34.501 39.9985 36.3205 39.9985H65.9731C67.7926 39.9985 69.2675 38.5236 69.2675 36.7041C69.2704 34.8846 67.7955 33.4097 65.976 33.4097Z" fill="#9E9E9E"/>
<path opacity="0.5" d="M65.976 33.4097H36.3205C34.501 33.4097 33.0261 34.8846 33.0261 36.7041C33.0261 38.5236 34.501 39.9985 36.3205 39.9985H65.9731C67.7926 39.9985 69.2675 38.5236 69.2675 36.7041C69.2704 34.8846 67.7955 33.4097 65.976 33.4097Z" fill="#BDBDBD"/>
<path d="M6.66587 39.176C8.03046 39.176 9.13668 38.0698 9.13668 36.7052C9.13668 35.3406 8.03046 34.2344 6.66587 34.2344C5.30129 34.2344 4.19507 35.3406 4.19507 36.7052C4.19507 38.0698 5.30129 39.176 6.66587 39.176Z" fill="#BDBDBD"/>
<path d="M36.3211 9.52071C37.6857 9.52071 38.7919 8.41449 38.7919 7.04991C38.7919 5.68532 37.6857 4.5791 36.3211 4.5791C34.9566 4.5791 33.8503 5.68532 33.8503 7.04991C33.8503 8.41449 34.9566 9.52071 36.3211 9.52071Z" fill="#BDBDBD"/>
<path d="M36.3211 68.8288C37.6857 68.8288 38.7919 67.7226 38.7919 66.358C38.7919 64.9934 37.6857 63.8872 36.3211 63.8872C34.9566 63.8872 33.8503 64.9934 33.8503 66.358C33.8503 67.7226 34.9566 68.8288 36.3211 68.8288Z" fill="#BDBDBD"/>
<path d="M15.3168 18.2067C16.6813 18.2067 17.7876 17.1005 17.7876 15.7359C17.7876 14.3714 16.6813 13.2651 15.3168 13.2651C13.9522 13.2651 12.8459 14.3714 12.8459 15.7359C12.8459 17.1005 13.9522 18.2067 15.3168 18.2067Z" fill="#BDBDBD"/>
<path d="M15.3168 60.1809C16.6813 60.1809 17.7876 59.0746 17.7876 57.7101C17.7876 56.3455 16.6813 55.2393 15.3168 55.2393C13.9522 55.2393 12.8459 56.3455 12.8459 57.7101C12.8459 59.0746 13.9522 60.1809 15.3168 60.1809Z" fill="#BDBDBD"/>
<path d="M57.3268 60.1809C58.6913 60.1809 59.7976 59.0746 59.7976 57.7101C59.7976 56.3455 58.6913 55.2393 57.3268 55.2393C55.9622 55.2393 54.856 56.3455 54.856 57.7101C54.856 59.0746 55.9622 60.1809 57.3268 60.1809Z" fill="#757575"/>
<path d="M36.322 33.8229H65.9746C67.724 33.8229 69.1551 35.1898 69.2573 36.9129C69.2602 36.8428 69.269 36.7756 69.269 36.7055C69.269 34.886 67.7941 33.4111 65.9746 33.4111H36.322C34.5025 33.4111 33.0276 34.886 33.0276 36.7055C33.0276 36.7756 33.0305 36.8428 33.0393 36.9129C33.1415 35.1898 34.5697 33.8229 36.322 33.8229Z" fill="white" fill-opacity="0.2"/>
<path d="M69.2573 36.9102C69.1492 38.6304 67.7211 40.0001 65.9746 40.0001H36.322C34.5726 40.0001 33.1415 38.6333 33.0393 36.9102C33.0305 36.9802 33.0276 37.0474 33.0276 37.1146C33.0276 38.9341 34.5025 40.409 36.322 40.409H65.9746C67.7941 40.409 69.269 38.9341 69.269 37.1146C69.269 37.0474 69.266 36.9802 69.2573 36.9102Z" fill="#212121" fill-opacity="0.2"/>
<path d="M36.3216 14.0532C42.6884 14.0532 48.4536 16.635 52.63 20.8085L62.1511 11.2816C62.081 11.2115 62.0138 11.1414 61.9467 11.0742L52.63 20.3938C48.4536 16.2203 42.6884 13.6385 36.3216 13.6385C23.582 13.6385 13.2578 23.9627 13.2578 36.7022C13.2578 36.7723 13.2607 36.8395 13.2607 36.9096C13.3717 24.2664 23.6521 14.0532 36.3216 14.0532Z" fill="#212121" fill-opacity="0.1"/>
<path d="M36.3219 72.95C56.3391 72.95 72.5662 56.7229 72.5662 36.7057C72.5662 16.6885 56.3391 0.461426 36.3219 0.461426C16.3048 0.461426 0.0776367 16.6885 0.0776367 36.7057C0.0776367 56.7229 16.3048 72.95 36.3219 72.95Z" fill="url(#paint0_radial_411_5571)"/>
<defs>
<radialGradient id="paint0_radial_411_5571" cx="0" cy="0" r="1" gradientUnits="userSpaceOnUse" gradientTransform="translate(10.7065 11.0078) scale(72.3634)">
<stop stop-color="white" stop-opacity="0.1"/>
<stop offset="1" stop-color="white" stop-opacity="0"/>
</radialGradient>
</defs>
</svg>
