<svg width="372" height="260" viewBox="0 0 372 260" fill="none" xmlns="http://www.w3.org/2000/svg">
<path d="M137.006 130.552C122.679 130.454 110.986 141.99 110.888 156.317C110.79 170.644 122.325 182.338 136.652 182.436C150.978 182.534 162.672 170.998 162.769 156.671C162.867 142.344 151.332 130.65 137.006 130.552Z" fill="white"/>
<path d="M98.0285 206.166L104.144 210.354L123.674 181.837L117.559 177.648L98.0285 206.166Z" fill="white"/>
<path d="M16.4641 118.16V45.327H31.2817L31.8628 56.9492L28.9574 56.0776C29.4093 54.076 30.7006 52.2035 32.8313 50.4601C35.0265 48.7168 37.8027 47.2963 41.1601 46.1986C44.5175 45.0364 48.1977 44.4553 52.2007 44.4553C57.6887 44.4553 62.4987 45.5852 66.6309 47.8451C70.8276 50.105 74.0558 53.2366 76.3156 57.2398C78.6399 61.1785 79.8021 65.7951 79.8021 71.0897C79.8021 76.3197 78.6399 80.9364 76.3156 84.9396C73.9913 88.9428 70.7308 92.0744 66.534 94.3343C62.3373 96.5942 57.495 97.7241 52.007 97.7241C48.004 97.7241 44.3238 97.143 40.9664 95.9808C37.6091 94.754 34.8328 93.2043 32.6376 91.3319C30.4424 89.3948 29.0865 87.4578 28.57 85.5207L32.1533 84.1648V118.16H16.4641ZM48.2299 84.6491C51.5228 84.6491 54.3959 84.1002 56.8493 83.0026C59.3028 81.8403 61.2075 80.2584 62.5633 78.2568C63.9192 76.1906 64.5971 73.8016 64.5971 71.0897C64.5971 68.3778 63.9192 66.0211 62.5633 64.0195C61.272 61.9533 59.3674 60.3714 56.8493 59.2737C54.3959 58.1115 51.5228 57.5304 48.2299 57.5304C44.8726 57.5304 41.9349 58.1115 39.4169 59.2737C36.9634 60.4359 35.0587 62.0501 33.7029 64.1163C32.347 66.118 31.6691 68.4424 31.6691 71.0897C31.6691 73.8016 32.347 76.1906 33.7029 78.2568C35.0587 80.2584 36.9634 81.8403 39.4169 83.0026C41.9349 84.1002 44.8726 84.6491 48.2299 84.6491ZM190.26 96.8525V45.4238H204.98L205.561 58.6926L201.397 59.6611C202.43 56.9492 203.98 54.4634 206.046 52.2035C208.176 49.879 210.856 48.0065 214.084 46.586C217.312 45.101 220.896 44.3584 224.834 44.3584C229.676 44.3584 233.744 45.2947 237.037 47.1672C240.33 49.0396 242.815 51.6224 244.494 54.9153C246.237 58.2083 247.109 61.9533 247.109 66.1502V96.8525H231.613V69.0558C231.613 66.7313 231.097 64.6974 230.064 62.9541C229.031 61.1462 227.61 59.7903 225.802 58.8863C223.995 57.9178 221.896 57.4335 219.507 57.4335C217.312 57.4335 215.375 57.8209 213.697 58.5957C212.018 59.306 210.565 60.2745 209.339 61.5013C208.176 62.6635 207.305 63.9226 206.724 65.2786C206.143 66.6345 205.852 67.9904 205.852 69.3464V96.8525H198.104C195.715 96.8525 193.843 96.8525 192.487 96.8525C191.196 96.8525 190.453 96.8525 190.26 96.8525ZM326.513 119.129C320.702 119.129 315.505 118.483 310.921 117.191C306.337 115.9 302.624 114.35 299.783 112.543L305.11 101.308C306.53 101.953 308.177 102.664 310.049 103.438C311.986 104.213 314.149 104.859 316.538 105.375C318.927 105.957 321.574 106.247 324.479 106.247C327.901 106.247 330.839 105.634 333.292 104.407C335.746 103.18 337.618 101.372 338.909 98.9832C340.265 96.6588 340.943 93.7209 340.943 90.1696V84.3585L343.946 84.8428C343.429 86.9089 342.009 88.846 339.684 90.6539C337.424 92.3973 334.519 93.8178 330.968 94.9154C327.482 95.9485 323.704 96.4651 319.637 96.4651C314.278 96.4651 309.533 95.3997 305.4 93.2689C301.268 91.1382 298.04 88.1357 295.716 84.2616C293.456 80.3875 292.326 75.9323 292.326 70.896C292.326 65.666 293.521 61.0816 295.909 57.143C298.363 53.1397 301.72 50.0082 305.981 47.7483C310.243 45.4884 315.117 44.3584 320.605 44.3584C322.22 44.3584 324.027 44.5521 326.029 44.9395C328.095 45.2624 330.161 45.7789 332.227 46.4892C334.358 47.1349 336.327 47.942 338.135 48.9105C339.943 49.8144 341.395 50.9121 342.493 52.2035C343.655 53.4948 344.301 54.8508 344.43 56.2713L341.234 57.0461L341.815 45.4238H356.536V89.8791C356.536 94.7217 355.729 98.9832 354.115 102.664C352.565 106.344 350.402 109.411 347.626 111.865C344.914 114.318 341.75 116.126 338.135 117.288C334.519 118.515 330.645 119.129 326.513 119.129ZM324.964 84.4553C328.385 84.4553 331.291 83.9065 333.68 82.8089C336.133 81.6466 338.038 80.0647 339.394 78.0631C340.75 75.9969 341.427 73.6402 341.427 70.9929C341.427 68.281 340.75 65.9242 339.394 63.9226C338.038 61.921 336.133 60.3391 333.68 59.1769C331.291 58.0146 328.385 57.4335 324.964 57.4335C321.542 57.4335 318.507 58.0146 315.86 59.1769C313.277 60.3391 311.276 61.921 309.855 63.9226C308.435 65.9242 307.725 68.281 307.725 70.9929C307.725 73.6402 308.435 75.9969 309.855 78.0631C311.276 80.0647 313.277 81.6466 315.86 82.8089C318.507 83.9065 321.542 84.4553 324.964 84.4553Z" fill="white"/>
<path d="M16.4641 206.941V134.108H31.2817L31.8628 145.731L28.9574 144.859C29.4093 142.857 30.7006 140.985 32.8313 139.242C35.0265 137.498 37.8027 136.078 41.1601 134.98C44.5175 133.818 48.1977 133.237 52.2007 133.237C57.6887 133.237 62.4987 134.367 66.6309 136.627C70.8276 138.886 74.0558 142.018 76.3156 146.021C78.6399 149.96 79.8021 154.577 79.8021 159.871C79.8021 165.101 78.6399 169.718 76.3156 173.721C73.9913 177.724 70.7308 180.856 66.534 183.116C62.3373 185.376 57.495 186.506 52.007 186.506C48.004 186.506 44.3238 185.924 40.9664 184.762C37.6091 183.535 34.8328 181.986 32.6376 180.113C30.4424 178.176 29.0865 176.239 28.57 174.302L32.1533 172.946V206.941H16.4641ZM48.2299 173.43C51.5228 173.43 54.3959 172.882 56.8493 171.784C59.3028 170.622 61.2075 169.04 62.5633 167.038C63.9192 164.972 64.5971 162.583 64.5971 159.871C64.5971 157.159 63.9192 154.803 62.5633 152.801C61.272 150.735 59.3674 149.153 56.8493 148.055C54.3959 146.893 51.5228 146.312 48.2299 146.312C44.8726 146.312 41.9349 146.893 39.4169 148.055C36.9634 149.217 35.0587 150.832 33.7029 152.898C32.347 154.899 31.6691 157.224 31.6691 159.871C31.6691 162.583 32.347 164.972 33.7029 167.038C35.0587 169.04 36.9634 170.622 39.4169 171.784C41.9349 172.882 44.8726 173.43 48.2299 173.43ZM190.26 185.634V134.205H204.98L205.561 147.474L201.397 148.443C202.43 145.731 203.98 143.245 206.046 140.985C208.176 138.66 210.856 136.788 214.084 135.367C217.312 133.882 220.896 133.14 224.834 133.14C229.676 133.14 233.744 134.076 237.037 135.949C240.33 137.821 242.815 140.404 244.494 143.697C246.237 146.99 247.109 150.735 247.109 154.932V185.634H231.613V157.837C231.613 155.513 231.097 153.479 230.064 151.736C229.031 149.928 227.61 148.572 225.802 147.668C223.995 146.699 221.896 146.215 219.507 146.215C217.312 146.215 215.375 146.602 213.697 147.377C212.018 148.087 210.565 149.056 209.339 150.283C208.176 151.445 207.305 152.704 206.724 154.06C206.143 155.416 205.852 156.772 205.852 158.128V185.634H198.104C195.715 185.634 193.843 185.634 192.487 185.634C191.196 185.634 190.453 185.634 190.26 185.634ZM326.513 207.91C320.702 207.91 315.505 207.264 310.921 205.973C306.337 204.682 302.624 203.132 299.783 201.324L305.11 190.089C306.53 190.735 308.177 191.445 310.049 192.22C311.986 192.995 314.149 193.64 316.538 194.157C318.927 194.738 321.574 195.029 324.479 195.029C327.901 195.029 330.839 194.415 333.292 193.188C335.746 191.962 337.618 190.154 338.909 187.765C340.265 185.44 340.943 182.502 340.943 178.951V173.14L343.946 173.624C343.429 175.69 342.009 177.627 339.684 179.435C337.424 181.179 334.519 182.599 330.968 183.697C327.482 184.73 323.704 185.246 319.637 185.246C314.278 185.246 309.533 184.181 305.4 182.05C301.268 179.92 298.04 176.917 295.716 173.043C293.456 169.169 292.326 164.714 292.326 159.677C292.326 154.447 293.521 149.863 295.909 145.924C298.363 141.921 301.72 138.79 305.981 136.53C310.243 134.27 315.117 133.14 320.605 133.14C322.22 133.14 324.027 133.334 326.029 133.721C328.095 134.044 330.161 134.56 332.227 135.271C334.358 135.916 336.327 136.723 338.135 137.692C339.943 138.596 341.395 139.694 342.493 140.985C343.655 142.276 344.301 143.632 344.43 145.053L341.234 145.828L341.815 134.205H356.536V178.66C356.536 183.503 355.729 187.765 354.115 191.445C352.565 195.125 350.402 198.192 347.626 200.646C344.914 203.1 341.75 204.908 338.135 206.07C334.519 207.297 330.645 207.91 326.513 207.91ZM324.964 173.237C328.385 173.237 331.291 172.688 333.68 171.59C336.133 170.428 338.038 168.846 339.394 166.844C340.75 164.778 341.427 162.422 341.427 159.774C341.427 157.062 340.75 154.706 339.394 152.704C338.038 150.702 336.133 149.121 333.68 147.958C331.291 146.796 328.385 146.215 324.964 146.215C321.542 146.215 318.507 146.796 315.86 147.958C313.277 149.121 311.276 150.702 309.855 152.704C308.435 154.706 307.725 157.062 307.725 159.774C307.725 162.422 308.435 164.778 309.855 166.844C311.276 168.846 313.277 170.428 315.86 171.59C318.507 172.688 321.542 173.237 324.964 173.237Z" fill="white"/>
<path d="M125.122 77.5926C130.641 77.5926 135.114 73.1186 135.114 67.5995C135.114 62.0805 130.641 57.6065 125.122 57.6065C119.603 57.6065 115.129 62.0805 115.129 67.5995C115.129 73.1186 119.603 77.5926 125.122 77.5926Z" fill="white"/>
<path d="M28.336 254.24C26.928 254.24 25.624 254.032 24.424 253.616C23.224 253.2 22.168 252.608 21.256 251.84C20.36 251.056 19.664 250.136 19.168 249.08C18.672 248.008 18.424 246.824 18.424 245.528C18.424 244.264 18.68 243.104 19.192 242.048C19.704 240.992 20.408 240.072 21.304 239.288C22.2 238.504 23.248 237.904 24.448 237.488C25.664 237.072 26.968 236.864 28.36 236.864C29.352 236.864 30.304 236.984 31.216 237.224C32.144 237.448 33 237.76 33.784 238.16C34.584 238.544 35.256 238.984 35.8 239.48L33.424 242.624C33.008 242.256 32.544 241.92 32.032 241.616C31.52 241.312 30.944 241.072 30.304 240.896C29.664 240.72 28.944 240.632 28.144 240.632C27.44 240.632 26.76 240.744 26.104 240.968C25.464 241.176 24.872 241.488 24.328 241.904C23.8 242.32 23.384 242.84 23.08 243.464C22.776 244.088 22.624 244.792 22.624 245.576C22.624 246.36 22.784 247.064 23.104 247.688C23.424 248.312 23.864 248.832 24.424 249.248C24.984 249.664 25.624 249.984 26.344 250.208C27.08 250.416 27.848 250.52 28.648 250.52C29.448 250.52 30.168 250.416 30.808 250.208C31.448 249.984 32.016 249.712 32.512 249.392C33.024 249.056 33.472 248.744 33.856 248.456L35.776 251.6C35.328 252 34.72 252.408 33.952 252.824C33.184 253.224 32.32 253.56 31.36 253.832C30.4 254.104 29.392 254.24 28.336 254.24ZM46.7472 254V236.24H50.5392V244.544L49.4592 244.88C49.6352 244.176 50.0032 243.536 50.5632 242.96C51.1392 242.384 51.8432 241.912 52.6752 241.544C53.5072 241.176 54.4112 240.992 55.3872 240.992C56.5712 240.992 57.5712 241.232 58.3872 241.712C59.2032 242.176 59.8112 242.816 60.2112 243.632C60.6272 244.432 60.8352 245.336 60.8352 246.344V254H56.9952V247.16C56.9952 246.552 56.8672 246.032 56.6112 245.6C56.3552 245.152 56.0032 244.816 55.5552 244.592C55.1072 244.352 54.5872 244.224 53.9952 244.208C53.4832 244.208 53.0192 244.296 52.6032 244.472C52.2032 244.648 51.8512 244.88 51.5472 245.168C51.2432 245.44 51.0112 245.76 50.8512 246.128C50.6912 246.496 50.6112 246.888 50.6112 247.304V254H48.6912C48.0992 254 47.6352 254 47.2992 254C46.9792 254 46.7952 254 46.7472 254ZM78.7127 254.216C77.3047 254.216 76.0807 253.936 75.0407 253.376C74.0167 252.8 73.2167 252.016 72.6407 251.024C72.0647 250.032 71.7767 248.904 71.7767 247.64C71.7767 246.344 72.0727 245.2 72.6647 244.208C73.2567 243.2 74.0727 242.416 75.1127 241.856C76.1527 241.28 77.3767 240.992 78.7847 240.992C79.5847 240.992 80.3207 241.088 80.9927 241.28C81.6807 241.472 82.2807 241.728 82.7927 242.048C83.3207 242.368 83.7447 242.72 84.0647 243.104C84.3847 243.472 84.5847 243.84 84.6647 244.208L83.7527 244.28V241.256H87.5687V254H83.6807V250.592L84.4727 250.808C84.4247 251.224 84.2327 251.632 83.8967 252.032C83.5767 252.432 83.1527 252.8 82.6247 253.136C82.1127 253.456 81.5207 253.72 80.8487 253.928C80.1767 254.12 79.4647 254.216 78.7127 254.216ZM79.6967 250.976C80.5447 250.976 81.2727 250.84 81.8807 250.568C82.4887 250.28 82.9607 249.888 83.2967 249.392C83.6327 248.88 83.8007 248.296 83.8007 247.64C83.8007 246.952 83.6327 246.36 83.2967 245.864C82.9607 245.368 82.4887 244.976 81.8807 244.688C81.2727 244.4 80.5447 244.256 79.6967 244.256C78.8807 244.256 78.1607 244.4 77.5367 244.688C76.9287 244.976 76.4487 245.368 76.0967 245.864C75.7607 246.36 75.5927 246.952 75.5927 247.64C75.5927 248.296 75.7607 248.88 76.0967 249.392C76.4487 249.888 76.9287 250.28 77.5367 250.568C78.1607 250.84 78.8807 250.976 79.6967 250.976ZM101.731 254V237.512H105.571V254H101.731ZM98.4434 244.616V241.256H109.435V244.616H98.4434ZM134.081 254L141.953 237.2H145.697L153.521 254H149.321L144.857 244.448C144.713 244.096 144.561 243.752 144.401 243.416C144.257 243.08 144.121 242.752 143.993 242.432C143.881 242.112 143.769 241.792 143.657 241.472C143.545 241.136 143.441 240.808 143.345 240.488L144.209 240.464C144.097 240.816 143.985 241.16 143.873 241.496C143.761 241.832 143.633 242.16 143.489 242.48C143.361 242.8 143.225 243.128 143.081 243.464C142.937 243.784 142.785 244.12 142.625 244.472L138.185 254H134.081ZM137.753 250.952L139.073 247.88H148.481L149.225 250.952H137.753ZM163.008 254V237.2H166.848L178.056 249.2L177.456 249.08C177.36 248.488 177.28 247.928 177.216 247.4C177.168 246.856 177.128 246.336 177.096 245.84C177.064 245.344 177.032 244.856 177 244.376C176.984 243.896 176.976 243.408 176.976 242.912C176.976 242.4 176.976 241.88 176.976 241.352V237.2H180.936V254H177.048L165.456 241.616L166.488 241.784C166.552 242.168 166.6 242.544 166.632 242.912C166.68 243.28 166.728 243.664 166.776 244.064C166.824 244.448 166.864 244.856 166.896 245.288C166.928 245.72 166.944 246.192 166.944 246.704C166.96 247.216 166.968 247.776 166.968 248.384V254H163.008ZM192.84 254V237.2H201.264C202.752 237.2 204.08 237.424 205.248 237.872C206.416 238.304 207.408 238.904 208.224 239.672C209.04 240.44 209.664 241.336 210.096 242.36C210.528 243.368 210.744 244.448 210.744 245.6C210.744 246.768 210.528 247.856 210.096 248.864C209.664 249.872 209.04 250.76 208.224 251.528C207.408 252.296 206.408 252.904 205.224 253.352C204.056 253.784 202.736 254 201.264 254H192.84ZM196.92 251.216L196.368 250.4H201.144C202.056 250.4 202.848 250.272 203.52 250.016C204.192 249.76 204.744 249.416 205.176 248.984C205.624 248.536 205.96 248.024 206.184 247.448C206.408 246.856 206.52 246.24 206.52 245.6C206.52 244.96 206.408 244.352 206.184 243.776C205.96 243.2 205.624 242.696 205.176 242.264C204.744 241.816 204.192 241.464 203.52 241.208C202.848 240.936 202.056 240.8 201.144 240.8H196.296L196.92 240.032V251.216ZM237.525 254V237.2H246.933C248.037 237.2 249.029 237.44 249.909 237.92C250.805 238.4 251.509 239.056 252.021 239.888C252.549 240.72 252.813 241.656 252.813 242.696C252.813 243.816 252.533 244.824 251.973 245.72C251.413 246.6 250.669 247.296 249.741 247.808C248.813 248.304 247.757 248.552 246.573 248.552H241.605V254H237.525ZM241.533 244.976H245.877C246.373 244.976 246.821 244.88 247.221 244.688C247.621 244.496 247.941 244.232 248.181 243.896C248.421 243.56 248.541 243.184 248.541 242.768C248.541 242.352 248.421 242 248.181 241.712C247.941 241.424 247.621 241.2 247.221 241.04C246.821 240.88 246.373 240.8 245.877 240.8H241.533V244.976ZM264.252 254V236.24H268.092V254H264.252ZM285.881 254.216C284.473 254.216 283.249 253.936 282.209 253.376C281.185 252.8 280.385 252.016 279.809 251.024C279.233 250.032 278.945 248.904 278.945 247.64C278.945 246.344 279.241 245.2 279.833 244.208C280.425 243.2 281.241 242.416 282.281 241.856C283.321 241.28 284.545 240.992 285.953 240.992C286.753 240.992 287.489 241.088 288.161 241.28C288.849 241.472 289.449 241.728 289.961 242.048C290.489 242.368 290.913 242.72 291.233 243.104C291.553 243.472 291.753 243.84 291.833 244.208L290.921 244.28V241.256H294.737V254H290.849V250.592L291.641 250.808C291.593 251.224 291.401 251.632 291.065 252.032C290.745 252.432 290.321 252.8 289.793 253.136C289.281 253.456 288.689 253.72 288.017 253.928C287.345 254.12 286.633 254.216 285.881 254.216ZM286.865 250.976C287.713 250.976 288.441 250.84 289.049 250.568C289.657 250.28 290.129 249.888 290.465 249.392C290.801 248.88 290.969 248.296 290.969 247.64C290.969 246.952 290.801 246.36 290.465 245.864C290.129 245.368 289.657 244.976 289.049 244.688C288.441 244.4 287.713 244.256 286.865 244.256C286.049 244.256 285.329 244.4 284.705 244.688C284.097 244.976 283.617 245.368 283.265 245.864C282.929 246.36 282.761 246.952 282.761 247.64C282.761 248.296 282.929 248.88 283.265 249.392C283.617 249.888 284.097 250.28 284.705 250.568C285.329 250.84 286.049 250.976 286.865 250.976ZM308.763 259.52L312.435 252.704L312.267 254.6L304.995 241.256H309.459L312.843 248.072C313.115 248.584 313.371 249.112 313.611 249.656C313.867 250.2 314.083 250.744 314.259 251.288L313.371 251.36C313.547 250.912 313.763 250.408 314.019 249.848C314.275 249.272 314.531 248.704 314.787 248.144L318.003 241.256H322.443L315.531 254.096L312.723 259.52H308.763ZM350.346 247.88C350.138 246.984 349.93 246.032 349.722 245.024C349.514 244.016 349.338 242.984 349.194 241.928C349.066 240.872 349.002 239.832 349.002 238.808V236.936H354.09V238.808C354.09 239.784 354.026 240.808 353.898 241.88C353.786 242.936 353.626 243.976 353.418 245C353.21 246.008 352.986 246.968 352.746 247.88H350.346ZM351.57 254.264C350.69 254.264 350.018 254.08 349.554 253.712C349.106 253.328 348.882 252.8 348.882 252.128C348.882 251.552 349.106 251.048 349.554 250.616C350.018 250.184 350.69 249.968 351.57 249.968C352.466 249.968 353.13 250.16 353.562 250.544C354.01 250.928 354.234 251.456 354.234 252.128C354.234 252.688 354.002 253.184 353.538 253.616C353.09 254.048 352.434 254.264 351.57 254.264Z" fill="white"/>
</svg>
