<svg width="60" height="14" viewBox="0 0 60 14" fill="none" xmlns="http://www.w3.org/2000/svg">
<path fill-rule="evenodd" clip-rule="evenodd" d="M3.00212 2.13081C2.86884 2.25893 2.79224 2.45613 2.79224 2.71238V11.827C2.79224 12.0832 2.86884 12.2804 3.0071 12.4041L3.04322 12.4314L8.75299 7.32426V7.20951L3.03824 2.10352L3.00212 2.13081Z" fill="url(#paint0_linear_411_5594)"/>
<path fill-rule="evenodd" clip-rule="evenodd" d="M10.6535 9.03364L8.74902 7.3296V7.21039L10.6541 5.50635L10.6953 5.52919L12.9485 6.6745C13.5937 6.99982 13.5937 7.53571 12.9485 7.86549L10.6953 9.0108C10.6946 9.0108 10.6535 9.03364 10.6535 9.03364Z" fill="url(#paint1_linear_411_5594)"/>
<path fill-rule="evenodd" clip-rule="evenodd" d="M10.6932 9.01082L8.7476 7.27002L3.00171 12.4094C3.21159 12.6111 3.56471 12.6339 3.95957 12.4367L10.6932 9.01082Z" fill="url(#paint2_linear_411_5594)"/>
<path fill-rule="evenodd" clip-rule="evenodd" d="M10.6932 5.52946L3.95957 2.10801C3.56534 1.90636 3.21159 1.93365 3.00171 2.13531L8.74698 7.26971L10.6932 5.52946Z" fill="url(#paint3_linear_411_5594)"/>
<path opacity="0.2" fill-rule="evenodd" clip-rule="evenodd" d="M10.6527 8.97363L3.96518 12.3722C3.5915 12.5644 3.25831 12.5511 3.04345 12.3767L3.00732 12.409L3.04345 12.4363C3.25831 12.6101 3.5915 12.624 3.96518 12.4318L10.6988 9.0104L10.6527 8.97363Z" fill="black"/>
<path opacity="0.12" fill-rule="evenodd" clip-rule="evenodd" d="M12.9471 7.80591L10.6477 8.97406L10.6888 9.01082L12.9421 7.86551C13.2647 7.70063 13.4235 7.4856 13.4235 7.27002C13.4029 7.46722 13.2391 7.65495 12.9471 7.80591Z" fill="black"/>
<path opacity="0.25" fill-rule="evenodd" clip-rule="evenodd" d="M3.95997 2.16764L12.9469 6.7344C13.239 6.88091 13.4028 7.07309 13.4283 7.27029C13.4283 7.05527 13.2695 6.83969 12.9469 6.6748L3.95997 2.10804C3.31476 1.77826 2.79224 2.05289 2.79224 2.71244V2.77205C2.79224 2.11249 3.31476 1.84232 3.95997 2.16764Z" fill="white"/>
<path fill-rule="evenodd" clip-rule="evenodd" d="M15.4085 6.98084C15.4085 5.52079 16.7805 4.33203 18.4128 4.33203C19.3153 4.33203 19.9574 4.649 20.4419 5.06178L19.8714 5.57204C19.5251 5.28126 19.0556 5.05565 18.4122 5.05565C17.2202 5.05565 16.2885 5.91408 16.2885 6.98028C16.2885 8.04649 17.2202 8.90603 18.4116 8.90603C19.1845 8.90603 19.6242 8.62862 19.9063 8.37571C20.1373 8.16904 20.2887 7.87213 20.3472 7.46492H18.4128V6.74298H21.1357C21.1643 6.87221 21.1793 7.02708 21.1793 7.19475C21.1793 7.73677 21.013 8.40914 20.478 8.88765C19.9574 9.37229 19.2935 9.63076 18.4122 9.63076C16.7792 9.63076 15.4072 8.44312 15.4072 6.98196L15.4085 6.98084ZM23.3802 6.21879C22.3258 6.21879 21.4651 6.93628 21.4651 7.92394C21.4651 8.90659 22.3252 9.62909 23.3802 9.62909C24.4352 9.62909 25.2941 8.90548 25.2941 7.92338C25.2941 6.93572 24.4346 6.21823 23.3802 6.21879ZM23.3802 8.9584C22.8029 8.9584 22.304 8.53225 22.304 7.9245C22.304 7.31062 22.8023 6.8906 23.3802 6.8906C23.9576 6.8906 24.4558 7.31006 24.4558 7.9245C24.4558 8.53169 23.9582 8.9584 23.3802 8.9584ZM27.5561 6.21879C26.5017 6.21879 25.6422 6.93628 25.6422 7.92394C25.6422 8.90659 26.5017 9.62909 27.5561 9.62909C28.6105 9.62909 29.4699 8.90548 29.4699 7.92338C29.4699 6.93572 28.6111 6.21823 27.5561 6.21879ZM27.5561 8.9584C26.9787 8.9584 26.4799 8.53225 26.4799 7.9245C26.4799 7.31062 26.9781 6.8906 27.5561 6.8906C28.1334 6.8906 28.6322 7.31006 28.6322 7.9245C28.6322 8.53169 28.1334 8.9584 27.5561 8.9584ZM32.681 6.3224V6.59981H32.6524C32.4649 6.39872 32.1037 6.21823 31.6491 6.21823C30.6956 6.21823 29.8205 6.96803 29.8205 7.93118C29.8205 8.88654 30.6949 9.63021 31.6491 9.63021C32.1037 9.63021 32.4649 9.44972 32.6524 9.24305H32.681V9.48816C32.681 10.1405 32.2912 10.4897 31.6628 10.4897C31.1496 10.4897 30.832 10.16 30.7018 9.88311L29.9719 10.1544C30.1811 10.6062 30.7379 11.1621 31.6621 11.1621C32.6437 11.1621 33.4745 10.6446 33.4745 9.3851V6.32184L32.681 6.3224ZM31.7207 8.9584C31.1434 8.9584 30.6582 8.525 30.6582 7.93118C30.6582 7.33067 31.1427 6.89115 31.7207 6.89115C32.2912 6.89115 32.739 7.33012 32.739 7.93118C32.7396 8.525 32.2918 8.9584 31.7207 8.9584ZM34.053 4.51308H34.8913V9.5266H34.053V4.51308ZM37.1888 8.9584C36.7628 8.9584 36.4589 8.78348 36.2652 8.442L38.8149 7.49779L38.7271 7.30393C38.5689 6.92346 38.0844 6.21879 37.0948 6.21879C36.1126 6.21879 35.2961 6.91009 35.2961 7.9245C35.2961 8.87985 36.1052 9.62965 37.1888 9.62965C38.0632 9.62965 38.5689 9.15225 38.7782 8.87372L38.128 8.48657C37.9106 8.77122 37.6142 8.95895 37.1888 8.9584ZM37.1234 6.87779C37.4554 6.87779 37.7369 7.02652 37.8309 7.23932L36.1257 7.87269C36.1045 7.21369 36.6968 6.87779 37.1234 6.87779Z" fill="white"/>
<path fill-rule="evenodd" clip-rule="evenodd" d="M42.4937 4.5127H40.4895V9.52622H41.3259V7.62721H42.4943C43.4216 7.62721 44.3334 7.0267 44.3334 6.06967C44.3334 5.11432 43.4222 4.51325 42.4955 4.51325L42.4937 4.5127ZM42.5154 6.92921H41.3259V5.21013H42.5154C43.1407 5.21013 43.497 5.67416 43.497 6.06967C43.497 6.4585 43.1407 6.92921 42.5154 6.92921ZM45.6307 9.52622V4.5127H44.7943V9.52622H45.6307ZM49.388 9.5173V7.59545C49.388 6.70527 48.6444 6.20894 47.6846 6.20894C47.0799 6.20894 46.4528 6.44791 46.193 6.97656L46.9354 7.25342C47.0942 6.97656 47.3894 6.88576 47.7002 6.88576C48.1324 6.88576 48.5721 7.11805 48.579 7.53139V7.5832C48.4276 7.50577 48.1038 7.38934 47.7064 7.38934C46.9061 7.38934 46.0915 7.78262 46.0915 8.51794C46.0915 9.1892 46.748 9.62092 47.4835 9.62092C48.0465 9.62092 48.356 9.39531 48.5503 9.13126H48.579V9.51842H49.3874L49.388 9.5173ZM47.585 8.9569C47.311 8.9569 46.9286 8.83435 46.9286 8.53187C46.9286 8.14471 47.405 7.99542 47.816 7.99542C48.1841 7.99542 48.3566 8.06617 48.5808 8.16309C48.5167 8.6132 48.0913 8.95133 47.585 8.9569ZM52.3294 6.31868L51.3703 8.49176H51.3417L50.3465 6.31868H49.4453L50.9375 9.35687L50.0861 11.0464H50.9587L53.2586 6.31868H52.3294Z" fill="white"/>
<defs>
<linearGradient id="paint0_linear_411_5594" x1="8.24028" y1="2.61441" x2="-0.756722" y2="5.29456" gradientUnits="userSpaceOnUse">
<stop stop-color="#00A0FF"/>
<stop offset="0.007" stop-color="#00A1FF"/>
<stop offset="0.26" stop-color="#00BEFF"/>
<stop offset="0.512" stop-color="#00D2FF"/>
<stop offset="0.76" stop-color="#00DFFF"/>
<stop offset="1" stop-color="#00E3FF"/>
</linearGradient>
<linearGradient id="paint1_linear_411_5594" x1="13.7881" y1="7.27024" x2="2.63643" y2="7.27024" gradientUnits="userSpaceOnUse">
<stop stop-color="#FFE000"/>
<stop offset="0.409" stop-color="#FFBD00"/>
<stop offset="0.775" stop-color="#FFA500"/>
<stop offset="1" stop-color="#FF9C00"/>
</linearGradient>
<linearGradient id="paint2_linear_411_5594" x1="9.63525" y1="8.21703" x2="3.43761" y2="19.879" gradientUnits="userSpaceOnUse">
<stop stop-color="#FF3A44"/>
<stop offset="1" stop-color="#C31162"/>
</linearGradient>
<linearGradient id="paint3_linear_411_5594" x1="1.55533" y1="-0.901101" x2="4.32004" y2="4.30685" gradientUnits="userSpaceOnUse">
<stop stop-color="#32A071"/>
<stop offset="0.069" stop-color="#2DA771"/>
<stop offset="0.476" stop-color="#15CF74"/>
<stop offset="0.801" stop-color="#06E775"/>
<stop offset="1" stop-color="#00F076"/>
</linearGradient>
</defs>
</svg>
