<svg width="14" height="14" viewBox="0 0 14 14" fill="none" xmlns="http://www.w3.org/2000/svg">
<path d="M4.66683 7.24633L6.83189 8.9014C7.25356 9.22375 7.8536 9.16051 8.19881 8.75734L12.8335 3.34448" stroke="#3A74FF" stroke-width="2" stroke-linecap="round"/>
<path fill-rule="evenodd" clip-rule="evenodd" d="M4.16489 9.94969L2.52589 8.64456C1.96546 8.1983 1.6478 7.56015 1.592 6.89851C1.1638 6.69666 0.639376 6.82265 0.353763 7.22118C0.0320472 7.67009 0.135154 8.2948 0.584061 8.61652L2.17185 9.75443C2.77075 10.1836 3.5321 10.237 4.16489 9.94969ZM5.99955 5.01906L7.99032 2.69405C8.34952 2.27453 8.98079 2.22564 9.40031 2.58484C9.57187 2.73174 9.68145 2.92414 9.72648 3.12895L7.25328 6.0174L5.99955 5.01906Z" fill="#3A74FF"/>
</svg>
