<svg width="14" height="14" viewBox="0 0 14 14" fill="none" xmlns="http://www.w3.org/2000/svg">
<path d="M4.66683 7.24633L6.83189 8.9014C7.25356 9.22375 7.8536 9.16051 8.19881 8.75734L12.8335 3.34448" stroke="#3A74FF" stroke-width="2" stroke-linecap="round"/>
<path fill-rule="evenodd" clip-rule="evenodd" d="M4.16489 9.94975L2.52589 8.64462C1.96546 8.19836 1.6478 7.56021 1.592 6.89857C1.1638 6.69672 0.639376 6.82271 0.353763 7.22124C0.0320472 7.67015 0.135154 8.29486 0.584061 8.61658L2.17185 9.75449C2.77075 10.1837 3.5321 10.2371 4.16489 9.94975ZM5.99955 5.01912L7.99032 2.69411C8.34952 2.27459 8.98079 2.2257 9.40031 2.5849C9.57187 2.7318 9.68145 2.9242 9.72648 3.12901L7.25328 6.01746L5.99955 5.01912Z" fill="#3A74FF"/>
</svg>
