<svg width="512" height="512" viewBox="0 0 512 512" fill="none" xmlns="http://www.w3.org/2000/svg">
<g clip-path="url(#clip0_1005_5278)">
<path fill-rule="evenodd" clip-rule="evenodd" d="M256 0C114.68 0 0 114.7 0 256C0 397.33 114.68 512 256 512C397.3 512 512 397.33 512 256C512 114.7 397.3 0 256 0ZM256 460.8C143.1 460.8 51.2 368.9 51.2 256C51.2 143.12 143.1 51.2 256 51.2C368.9 51.2 460.8 143.13 460.8 256C460.8 368.9 368.9 460.8 256 460.8ZM115.2 396.8L307.45 307.48L396.8 115.2L204.55 204.55L115.2 396.8ZM256 227.85C271.6 227.85 284.15 240.4 284.15 256C284.15 271.63 271.6 284.17 256 284.17C240.37 284.17 227.82 271.62 227.82 256C227.82 240.4 240.38 227.85 256 227.85Z" fill="#979797"/>
</g>
<defs>
<clipPath id="clip0_1005_5278">
<rect width="512" height="512" fill="white"/>
</clipPath>
</defs>
</svg>
