<svg width="34" height="24" viewBox="0 0 34 24" fill="none" xmlns="http://www.w3.org/2000/svg">
<path d="M17.671 5.8414C18.1196 6.34425 18.4366 6.96528 18.6134 7.6873C18.7812 8.37265 18.8187 9.13495 18.725 9.95329C18.6903 10.256 18.6389 10.5988 18.5641 10.9614C19.1436 11.5225 19.9027 11.8787 20.8898 11.8787C23.628 11.8784 24.6133 9.13671 24.8712 6.88459C25.1889 4.11007 23.8771 2.02197 20.8898 2.02197C18.5455 2.02197 17.2332 3.30834 16.9304 5.20312C17.2044 5.38442 17.4528 5.59679 17.671 5.8414Z" fill="#BDBDBD"/>
<path d="M28.2972 18.4074C28.2674 17.5335 28.1649 16.6556 28.0123 15.7951C27.8277 14.753 27.5925 13.2249 26.6825 12.5457C26.1563 12.1531 25.4749 12.0242 24.8726 11.7875C24.5793 11.6722 24.3166 11.5578 24.0702 11.4276C23.2381 12.34 22.1532 12.8173 20.8898 12.8174C19.9067 12.8174 19.0323 12.5269 18.3004 11.9685C18.1319 12.4897 17.9063 13.0146 17.6047 13.4941C17.8696 13.6536 18.156 13.781 18.5041 13.9177C18.6582 13.9783 18.8273 14.0336 19.0065 14.0921C19.4907 14.2503 20.0394 14.4297 20.5321 14.7975C21.7033 15.6717 21.9916 17.3099 22.2021 18.5062L22.2247 18.6353C22.3336 19.2487 22.4136 19.8513 22.465 20.4368C23.3998 20.341 24.3297 20.1774 25.2416 19.9848C25.9786 19.8293 26.7107 19.6394 27.4198 19.3836C27.9862 19.1793 28.3205 19.0843 28.2972 18.4074Z" fill="#BDBDBD"/>
<path d="M7.40837 11.8787C8.39534 11.8788 9.15444 11.5225 9.73396 10.9614C9.65914 10.5989 9.60782 10.256 9.57309 9.95333C9.47941 9.13504 9.51696 8.3727 9.68471 7.68735C9.86148 6.96537 10.1785 6.34429 10.6271 5.84144C10.8453 5.59679 11.0937 5.38442 11.3676 5.20312C11.0648 3.30834 9.75245 2.02197 7.40823 2.02197C4.42092 2.02197 3.10908 4.11012 3.42679 6.88459C3.6848 9.1368 4.6701 11.8785 7.40837 11.8787Z" fill="#BDBDBD"/>
<path d="M7.76622 14.7975C8.25889 14.4297 8.8077 14.2503 9.29183 14.0921C9.471 14.0336 9.64005 13.9783 9.79416 13.9177C10.1423 13.781 10.4288 13.6537 10.6936 13.4941C10.3921 13.0147 10.1664 12.4897 9.99799 11.9685C9.26607 12.5269 8.3916 12.8174 7.40856 12.8174C6.14522 12.8173 5.06018 12.34 4.22816 11.4276C3.98175 11.5578 3.71897 11.6722 3.42573 11.7875C2.82342 12.0242 2.142 12.1531 1.6158 12.5457C0.705908 13.225 0.470598 14.7529 0.286013 15.7951C0.133424 16.6555 0.030959 17.5335 0.0011349 18.4074C-0.022077 19.0843 0.312138 19.1793 0.878472 19.3836C1.5875 19.6393 2.31974 19.8292 3.05674 19.9848C3.96857 20.1774 4.89857 20.3411 5.83325 20.4368C5.88467 19.8513 5.96461 19.2488 6.07355 18.6353L6.09621 18.5062C6.30678 17.31 6.59503 15.6717 7.76622 14.7975Z" fill="#BDBDBD"/>
<path d="M21.7489 18.7171L21.7261 18.5874C21.5292 17.4686 21.2595 15.9364 20.2376 15.1735C19.8067 14.8519 19.3188 14.6925 18.8469 14.5382C18.661 14.4775 18.4857 14.4201 18.3185 14.3545C18.0749 14.2587 17.8554 14.165 17.6497 14.0614C16.7858 15.2142 15.5884 15.8212 14.1641 15.8213C12.7401 15.8213 11.5429 15.2143 10.679 14.0614C10.4733 14.1651 10.2538 14.2588 10.0101 14.3546C9.84314 14.4201 9.66762 14.4775 9.48183 14.5382C9.00987 14.6924 8.52186 14.8519 8.09101 15.1735C7.06881 15.9365 6.79928 17.4691 6.60244 18.5881L6.57965 18.7173C6.41517 19.6461 6.31701 20.5471 6.28797 21.3952C6.25389 22.3902 6.87151 22.612 7.41634 22.8078L7.47502 22.8289C8.13022 23.0653 8.86315 23.2678 9.71561 23.448C11.4563 23.8154 12.869 23.9908 14.1609 24H14.1643H14.1676C15.4598 23.9908 16.8723 23.8154 18.6128 23.448C19.4654 23.2679 20.1983 23.0654 20.8532 22.829L20.9118 22.8079C21.4568 22.6122 22.0746 22.3904 22.0405 21.3952C22.0115 20.5448 21.9133 19.6439 21.7489 18.7171Z" fill="#BDBDBD"/>
<path d="M10.2189 10.0984C10.4768 12.3507 11.4619 15.0927 14.2002 15.0925C16.9385 15.0924 17.9238 12.3507 18.1816 10.0984C18.4993 7.32402 17.1874 5.23596 14.2002 5.23596C11.2135 5.23587 9.90067 7.32379 10.2189 10.0984Z" fill="#BDBDBD"/>
<mask id="path-7-outside-1_803_5278" maskUnits="userSpaceOnUse" x="14.0286" y="2.46582" width="17" height="17" fill="black">
<rect fill="white" x="14.0286" y="2.46582" width="17" height="17"/>
<path fill-rule="evenodd" clip-rule="evenodd" d="M27.5211 9.40234L29.0113 7.91212L29.0113 7.91211L29.0113 7.91207C29.331 7.59241 29.4908 7.43257 29.5981 7.2738C30.0554 6.5972 30.0554 5.71056 29.5981 5.03396C29.4908 4.87518 29.331 4.71534 29.0113 4.39565L29.0113 4.39564C28.6916 4.07594 28.5317 3.91609 28.373 3.80878C27.6964 3.3515 26.8097 3.3515 26.1331 3.80878C25.9743 3.91609 25.8145 4.07594 25.4948 4.39562L25.4948 4.39564L23.9844 5.90604C24.8272 7.36054 26.0469 8.57089 27.5211 9.40234ZM22.5298 7.36059L16.6808 13.2096C16.2558 13.6347 16.0432 13.8472 15.9035 14.1083C15.7638 14.3694 15.7048 14.6641 15.5869 15.2536L15.0924 17.7261C15.0259 18.0588 14.9926 18.2251 15.0872 18.3197C15.1818 18.4143 15.3482 18.381 15.6808 18.3145L18.1534 17.82L18.1534 17.82C18.7428 17.7021 19.0375 17.6431 19.2986 17.5034C19.5597 17.3637 19.7723 17.1511 20.1973 16.7261L26.0627 10.8607C24.6397 9.96458 23.4345 8.76756 22.5298 7.36059Z"/>
</mask>
<path fill-rule="evenodd" clip-rule="evenodd" d="M27.5211 9.40234L29.0113 7.91212L29.0113 7.91211L29.0113 7.91207C29.331 7.59241 29.4908 7.43257 29.5981 7.2738C30.0554 6.5972 30.0554 5.71056 29.5981 5.03396C29.4908 4.87518 29.331 4.71534 29.0113 4.39565L29.0113 4.39564C28.6916 4.07594 28.5317 3.91609 28.373 3.80878C27.6964 3.3515 26.8097 3.3515 26.1331 3.80878C25.9743 3.91609 25.8145 4.07594 25.4948 4.39562L25.4948 4.39564L23.9844 5.90604C24.8272 7.36054 26.0469 8.57089 27.5211 9.40234ZM22.5298 7.36059L16.6808 13.2096C16.2558 13.6347 16.0432 13.8472 15.9035 14.1083C15.7638 14.3694 15.7048 14.6641 15.5869 15.2536L15.0924 17.7261C15.0259 18.0588 14.9926 18.2251 15.0872 18.3197C15.1818 18.4143 15.3482 18.381 15.6808 18.3145L18.1534 17.82L18.1534 17.82C18.7428 17.7021 19.0375 17.6431 19.2986 17.5034C19.5597 17.3637 19.7723 17.1511 20.1973 16.7261L26.0627 10.8607C24.6397 9.96458 23.4345 8.76756 22.5298 7.36059Z" fill="#BDBDBD"/>
<path d="M27.5211 9.40234L27.128 10.0991L27.6572 10.3976L28.0867 9.96802L27.5211 9.40234ZM29.0113 7.91212L28.4761 7.31749L28.4605 7.33156L28.4456 7.34644L29.0113 7.91212ZM29.0113 7.91211L29.5465 8.50675L29.5574 8.49692L29.5679 8.4867L29.0113 7.91211ZM29.0113 7.91207L29.568 8.48673L29.577 8.47775L29.0113 7.91207ZM29.5981 7.2738L28.9353 6.82583L28.9353 6.82583L29.5981 7.2738ZM29.5981 5.03396L28.9353 5.48193L28.9353 5.48193L29.5981 5.03396ZM29.0113 4.39565L28.4342 4.94968L28.4398 4.95557L28.4456 4.96134L29.0113 4.39565ZM29.0113 4.39564L29.5884 3.84161L29.5827 3.83572L29.577 3.82995L29.0113 4.39564ZM28.373 3.80878L28.8209 3.14597L28.8209 3.14597L28.373 3.80878ZM26.1331 3.80878L26.5811 4.4716L26.5811 4.4716L26.1331 3.80878ZM25.4948 4.39562L26.0447 4.97665L26.0527 4.96909L26.0605 4.9613L25.4948 4.39562ZM25.4948 4.39564L24.9449 3.8146L24.9369 3.82217L24.9291 3.82995L25.4948 4.39564ZM23.9844 5.90604L23.4187 5.34036L22.9839 5.77513L23.2922 6.30713L23.9844 5.90604ZM22.5298 7.36059L23.2027 6.92793L22.666 6.09309L21.9641 6.79491L22.5298 7.36059ZM16.6808 13.2096L16.1151 12.6439L16.1151 12.6439L16.6808 13.2096ZM15.9035 14.1083L15.1982 13.7308L15.1982 13.7308L15.9035 14.1083ZM15.5869 15.2536L14.8025 15.0967L14.8025 15.0967L15.5869 15.2536ZM15.0924 17.7261L15.8769 17.883L15.8769 17.883L15.0924 17.7261ZM15.0872 18.3197L15.6529 17.754L15.6529 17.754L15.0872 18.3197ZM15.6808 18.3145L15.8377 19.099L15.8377 19.099L15.6808 18.3145ZM18.1534 17.82L18.3102 18.6044L18.3499 18.5965L18.3886 18.5846L18.1534 17.82ZM18.1534 17.82L17.9965 17.0355L17.9568 17.0434L17.9181 17.0554L18.1534 17.82ZM19.2986 17.5034L19.6761 18.2087L19.6761 18.2087L19.2986 17.5034ZM20.1973 16.7261L19.6316 16.1604L19.6316 16.1604L20.1973 16.7261ZM26.0627 10.8607L26.6284 11.4263L27.3371 10.7177L26.489 10.1837L26.0627 10.8607ZM28.0867 9.96802L29.577 8.47781L28.4456 7.34644L26.9554 8.83665L28.0867 9.96802ZM29.5464 8.50676L29.5465 8.50675L28.4761 7.31748L28.4761 7.31749L29.5464 8.50676ZM29.5679 8.4867L29.568 8.48666L28.4547 7.33747L28.4547 7.33752L29.5679 8.4867ZM29.577 8.47775C29.8703 8.18446 30.0999 7.96006 30.2609 7.72177L28.9353 6.82583C28.8818 6.90508 28.7917 7.00036 28.4456 7.34638L29.577 8.47775ZM30.2609 7.72177C30.9011 6.77453 30.9011 5.53323 30.2609 4.58599L28.9353 5.48193C29.2097 5.88788 29.2097 6.41987 28.9353 6.82583L30.2609 7.72177ZM30.2609 4.58599C30.0999 4.34769 29.8703 4.12328 29.577 3.82997L28.4456 4.96134C28.7917 5.30739 28.8817 5.40267 28.9353 5.48193L30.2609 4.58599ZM29.5884 3.84163L29.5884 3.84161L28.4342 4.94966L28.4342 4.94968L29.5884 3.84163ZM29.577 3.82995C29.2836 3.53662 29.0592 3.30702 28.8209 3.14597L27.925 4.4716C28.0042 4.52516 28.0995 4.61526 28.4456 4.96132L29.577 3.82995ZM28.8209 3.14597C27.8737 2.50577 26.6324 2.50577 25.6851 3.14597L26.5811 4.4716C26.987 4.19723 27.519 4.19723 27.925 4.4716L28.8209 3.14597ZM25.6851 3.14596C25.4468 3.30702 25.2224 3.53662 24.9291 3.82993L26.0605 4.9613C26.4065 4.61525 26.5018 4.52516 26.5811 4.4716L25.6851 3.14596ZM24.9449 3.81458L24.9449 3.8146L26.0447 4.97667L26.0447 4.97665L24.9449 3.81458ZM24.9291 3.82995L23.4187 5.34036L24.5501 6.47173L26.0605 4.96132L24.9291 3.82995ZM23.2922 6.30713C24.2062 7.88459 25.5291 9.19728 27.128 10.0991L27.9141 8.70553C26.5648 7.9445 25.4481 6.83648 24.6766 5.50495L23.2922 6.30713ZM21.9641 6.79491L16.1151 12.6439L17.2465 13.7753L23.0955 7.92628L21.9641 6.79491ZM16.1151 12.6439C15.7231 13.036 15.4066 13.3412 15.1982 13.7308L16.6088 14.4858C16.6798 14.3531 16.7885 14.2333 17.2465 13.7753L16.1151 12.6439ZM15.1982 13.7308C14.9897 14.1203 14.9112 14.553 14.8025 15.0967L16.3714 15.4105C16.4984 14.7753 16.5379 14.6184 16.6088 14.4858L15.1982 13.7308ZM14.8025 15.0967L14.308 17.5693L15.8769 17.883L16.3714 15.4105L14.8025 15.0967ZM14.308 17.5693C14.2799 17.7097 14.2389 17.9037 14.2304 18.0717C14.2211 18.2556 14.2378 18.6016 14.5216 18.8854L15.6529 17.754C15.6919 17.793 15.7266 17.8382 15.7549 17.8885C15.7828 17.9382 15.8005 17.9858 15.8115 18.0265C15.8221 18.0663 15.8261 18.0985 15.8276 18.1187C15.8291 18.1388 15.8285 18.1511 15.8284 18.1526C15.8283 18.1542 15.8285 18.1496 15.8301 18.1366C15.8318 18.1237 15.8344 18.106 15.8386 18.0817C15.8474 18.0306 15.8596 17.9694 15.8769 17.883L14.308 17.5693ZM14.5216 18.8854C14.8053 19.1691 15.1513 19.1858 15.3352 19.1765C15.5033 19.168 15.6972 19.127 15.8377 19.099L15.5239 17.53C15.4376 17.5473 15.3763 17.5595 15.3252 17.5683C15.3009 17.5725 15.2832 17.5751 15.2703 17.5768C15.2573 17.5784 15.2527 17.5786 15.2543 17.5785C15.2558 17.5785 15.2681 17.5779 15.2882 17.5793C15.3085 17.5809 15.3406 17.5848 15.3804 17.5955C15.4212 17.6064 15.4687 17.6241 15.5184 17.652C15.5687 17.6803 15.614 17.715 15.6529 17.754L14.5216 18.8854ZM15.8377 19.099L18.3102 18.6044L17.9965 17.0355L15.5239 17.53L15.8377 19.099ZM18.3886 18.5846L18.3886 18.5846L17.9181 17.0554L17.9181 17.0554L18.3886 18.5846ZM18.3103 18.6044C18.854 18.4957 19.2866 18.4172 19.6761 18.2087L18.9211 16.7981C18.7885 16.8691 18.6317 16.9085 17.9965 17.0355L18.3103 18.6044ZM19.6761 18.2087C20.0657 18.0003 20.3709 17.6838 20.763 17.2918L19.6316 16.1604C19.1736 16.6184 19.0538 16.7271 18.9211 16.7981L19.6761 18.2087ZM20.763 17.2918L26.6284 11.4263L25.4971 10.295L19.6316 16.1604L20.763 17.2918ZM26.489 10.1837C25.1654 9.35024 24.0443 8.23674 23.2027 6.92793L21.8569 7.79325C22.8247 9.29838 24.114 10.5789 25.6365 11.5376L26.489 10.1837Z" fill="#272932" mask="url(#path-7-outside-1_803_5278)"/>
</svg>
