<svg width="19" height="19" viewBox="0 0 19 19" fill="none" xmlns="http://www.w3.org/2000/svg">
<path d="M7.125 4.75C7.125 5.06189 7.18643 5.37072 7.30579 5.65887C7.42514 5.94702 7.60008 6.20884 7.82062 6.42938C8.04116 6.64992 8.30298 6.82486 8.59113 6.94421C8.87928 7.06357 9.18811 7.125 9.5 7.125C9.81189 7.125 10.1207 7.06357 10.4089 6.94421C10.697 6.82486 10.9588 6.64992 11.1794 6.42938C11.3999 6.20884 11.5749 5.94702 11.6942 5.65887C11.8136 5.37072 11.875 5.06189 11.875 4.75C11.875 4.43811 11.8136 4.12927 11.6942 3.84113C11.5749 3.55298 11.3999 3.29116 11.1794 3.07062C10.9588 2.85008 10.697 2.67514 10.4089 2.55579C10.1207 2.43643 9.81189 2.375 9.5 2.375C9.18811 2.375 8.87927 2.43643 8.59113 2.55579C8.30298 2.67514 8.04116 2.85008 7.82062 3.07062C7.60008 3.29116 7.42514 3.55298 7.30579 3.84113C7.18643 4.12928 7.125 4.43811 7.125 4.75L7.125 4.75Z" stroke="#BDBDBD" stroke-width="1.5"/>
<path d="M3.51326 11.0053C3.24315 11.1613 3.00641 11.3689 2.81654 11.6163C2.62668 11.8638 2.48741 12.1462 2.40668 12.4475C2.32596 12.7487 2.30537 13.0629 2.34608 13.3721C2.38679 13.6814 2.488 13.9795 2.64395 14.2496C2.79989 14.5198 3.00751 14.7565 3.25495 14.9464C3.50239 15.1362 3.7848 15.2755 4.08606 15.3562C4.38733 15.4369 4.70154 15.4575 5.01076 15.4168C5.31998 15.3761 5.61815 15.2749 5.88826 15.119C6.15836 14.963 6.39511 14.7554 6.58497 14.508C6.77484 14.2605 6.91411 13.9781 6.99483 13.6768C7.07555 13.3756 7.09615 13.0614 7.05544 12.7521C7.01473 12.4429 6.91351 12.1448 6.75757 11.8746C6.60162 11.6045 6.394 11.3678 6.14657 11.1779C5.89913 10.9881 5.61671 10.8488 5.31545 10.7681C5.01419 10.6874 4.69998 10.6668 4.39076 10.7075C4.08154 10.7482 3.78336 10.8494 3.51326 11.0053L3.51326 11.0053Z" stroke="#BDBDBD" stroke-width="1.5"/>
<path d="M15.4867 11.0053C15.7568 11.1613 15.9936 11.3689 16.1835 11.6163C16.3733 11.8638 16.5126 12.1462 16.5933 12.4475C16.674 12.7487 16.6946 13.0629 16.6539 13.3721C16.6132 13.6814 16.512 13.9795 16.3561 14.2496C16.2001 14.5198 15.9925 14.7565 15.7451 14.9464C15.4976 15.1362 15.2152 15.2755 14.9139 15.3562C14.6127 15.4369 14.2985 15.4575 13.9892 15.4168C13.68 15.3761 13.3818 15.2749 13.1117 15.119C12.8416 14.963 12.6049 14.7554 12.415 14.508C12.2252 14.2605 12.0859 13.9781 12.0052 13.6768C11.9244 13.3756 11.9039 13.0614 11.9446 12.7521C11.9853 12.4429 12.0865 12.1448 12.2424 11.8746C12.3984 11.6045 12.606 11.3678 12.8534 11.1779C13.1009 10.9881 13.3833 10.8488 13.6845 10.7681C13.9858 10.6874 14.3 10.6668 14.6092 10.7075C14.9185 10.7482 15.2166 10.8494 15.4867 11.0053L15.4867 11.0053Z" stroke="#BDBDBD" stroke-width="1.5"/>
<path fill-rule="evenodd" clip-rule="evenodd" d="M7.17142 5.21737C7.14064 5.06394 7.12503 4.90748 7.12503 4.75024C7.12503 4.43835 7.18646 4.12952 7.30581 3.84137C7.35447 3.72389 7.41237 3.61079 7.47884 3.50308C7.2454 3.57258 7.01527 3.65421 6.7894 3.74776C5.93001 4.10373 5.14915 4.62549 4.49141 5.28324C3.83366 5.94099 3.3119 6.72185 2.95593 7.58124C2.59996 8.44063 2.41675 9.36172 2.41675 10.2919C2.41675 10.8468 2.48194 11.3984 2.6101 11.9356C2.67016 11.8242 2.73916 11.7175 2.81658 11.6166C3.00645 11.3692 3.24319 11.1615 3.5133 11.0056C3.64947 10.927 3.79278 10.8623 3.94104 10.8122C3.92488 10.6395 3.91675 10.4659 3.91675 10.2919C3.91675 9.5587 4.06116 8.83266 4.34175 8.15526C4.62234 7.47786 5.03361 6.86236 5.55207 6.3439C6.0211 5.87486 6.56956 5.49356 7.17142 5.21737ZM11.8286 5.21732C12.4305 5.49352 12.979 5.87483 13.4481 6.34389C13.9666 6.86235 14.3778 7.47786 14.6584 8.15526C14.939 8.83266 15.0834 9.55869 15.0834 10.2919C15.0834 10.4659 15.0753 10.6396 15.0591 10.8122C15.2073 10.8623 15.3506 10.927 15.4868 11.0056C15.7569 11.1615 15.9936 11.3692 16.1835 11.6166C16.2609 11.7175 16.33 11.8243 16.39 11.9358C16.5182 11.3985 16.5834 10.8468 16.5834 10.2919C16.5834 9.36171 16.4002 8.44062 16.0442 7.58123C15.6883 6.72184 15.1665 5.94098 14.5088 5.28323C13.851 4.62548 13.0701 4.10373 12.2108 3.74776C11.9848 3.65419 11.7547 3.57255 11.5212 3.50304C11.5877 3.61076 11.6456 3.72388 11.6942 3.84137C11.8136 4.12952 11.875 4.43835 11.875 4.75024C11.875 4.90746 11.8594 5.06391 11.8286 5.21732ZM14.3692 15.4364C14.2425 15.4401 14.1155 15.4337 13.9893 15.4171C13.68 15.3764 13.3819 15.2752 13.1118 15.1192C12.9757 15.0407 12.8481 14.949 12.7307 14.8457C12.3906 15.0869 12.0238 15.2899 11.6367 15.4502C10.9593 15.7308 10.2333 15.8752 9.50008 15.8752C8.76687 15.8752 8.04083 15.7308 7.36343 15.4502C6.97638 15.2899 6.60953 15.0869 6.26945 14.8457C6.15202 14.949 6.02439 15.0406 5.8883 15.1192C5.61819 15.2752 5.32002 15.3764 5.0108 15.4171C4.88462 15.4337 4.75762 15.4401 4.631 15.4364C5.25861 16.0304 5.99003 16.5049 6.78941 16.8361C7.6488 17.192 8.56989 17.3752 9.50008 17.3752C10.4303 17.3752 11.3514 17.192 12.2108 16.8361C13.0101 16.5049 13.7416 16.0304 14.3692 15.4364Z" fill="#BDBDBD"/>
</svg>
