<svg width="40" height="39" viewBox="0 0 40 39" fill="none" xmlns="http://www.w3.org/2000/svg">
<rect y="0.777832" width="40" height="38.2222" rx="19.1111" fill="white"/>
<path d="M24.2967 12.1709C24.7866 12.72 25.1327 13.3982 25.3258 14.1867C25.5091 14.9351 25.55 15.7675 25.4477 16.6611C25.4098 16.9916 25.3537 17.366 25.2721 17.762C25.9048 18.3747 26.7338 18.7637 27.8116 18.7636C30.8018 18.7634 31.8778 15.7694 32.1593 13.3101C32.5063 10.2803 31.0738 8.00012 27.8116 8.00012C25.2518 8.00012 23.8187 9.40483 23.488 11.4739C23.7872 11.6719 24.0585 11.9038 24.2967 12.1709Z" fill="#8C67F6"/>
<path d="M35.9003 25.8929C35.8677 24.9386 35.7558 23.9798 35.5892 23.0403C35.3876 21.9022 35.1307 20.2336 34.1371 19.4919C33.5625 19.0632 32.8184 18.9224 32.1606 18.6639C31.8404 18.5381 31.5535 18.4131 31.2844 18.2709C30.3758 19.2673 29.191 19.7884 27.8114 19.7885C26.7379 19.7885 25.783 19.4714 24.9837 18.8616C24.7997 19.4307 24.5534 20.0039 24.2241 20.5275C24.5133 20.7017 24.8261 20.8408 25.2063 20.9902C25.3745 21.0563 25.5592 21.1167 25.7548 21.1806C26.2836 21.3534 26.8828 21.5492 27.4208 21.9508C28.6997 22.9055 29.0145 24.6944 29.2444 26.0007L29.2692 26.1417C29.3881 26.8115 29.4754 27.4696 29.5316 28.1089C30.5523 28.0044 31.5678 27.8257 32.5635 27.6154C33.3684 27.4455 34.1679 27.2382 34.9422 26.9589C35.5607 26.7357 35.9257 26.632 35.9003 25.8929Z" fill="#8C67F6"/>
<path d="M13.0897 18.7636C14.1675 18.7637 14.9964 18.3746 15.6293 17.7619C15.5476 17.366 15.4915 16.9916 15.4536 16.661C15.3513 15.7675 15.3923 14.935 15.5755 14.1866C15.7685 13.3982 16.1147 12.72 16.6046 12.1709C16.8428 11.9037 17.1141 11.6718 17.4132 11.4738C17.0825 9.40471 15.6495 8 13.0896 8C9.82744 8 8.39491 10.2803 8.74185 13.31C9.0236 15.7694 10.0995 18.7634 13.0897 18.7636Z" fill="#8C67F6"/>
<path d="M13.4807 21.9508C14.0187 21.5492 14.618 21.3534 15.1467 21.1806C15.3423 21.1167 15.5269 21.0563 15.6952 20.9902C16.0753 20.8409 16.3882 20.7018 16.6774 20.5276C16.3481 20.004 16.1017 19.4307 15.9178 18.8616C15.1185 19.4714 14.1636 19.7885 13.0901 19.7885C11.7106 19.7885 10.5257 19.2672 9.61714 18.2709C9.34807 18.4131 9.06112 18.538 8.74089 18.6639C8.08317 18.9224 7.33906 19.0632 6.76445 19.4919C5.77085 20.2337 5.51389 21.9022 5.31233 23.0403C5.1457 23.9798 5.03381 24.9386 5.00124 25.8929C4.97589 26.6321 5.34085 26.7357 5.95929 26.9589C6.73355 27.2381 7.53315 27.4455 8.33796 27.6154C9.33368 27.8257 10.3492 28.0044 11.3699 28.1089C11.426 27.4696 11.5134 26.8116 11.6323 26.1417L11.6571 26.0007C11.887 24.6945 12.2018 22.9055 13.4807 21.9508Z" fill="#8C67F6"/>
<path d="M28.7493 26.2312L28.7244 26.0895C28.5094 24.8678 28.2149 23.1946 27.099 22.3615C26.6284 22.0103 26.0956 21.8362 25.5803 21.6678C25.3774 21.6015 25.1858 21.5388 25.0033 21.4671C24.7373 21.3626 24.4976 21.2602 24.273 21.1471C23.3296 22.406 22.022 23.0688 20.4667 23.069C18.9117 23.069 17.6044 22.4061 16.661 21.1471C16.4363 21.2604 16.1966 21.3626 15.9305 21.4672C15.7482 21.5388 15.5565 21.6015 15.3537 21.6678C14.8383 21.8362 14.3054 22.0103 13.8349 22.3615C12.7186 23.1947 12.4243 24.8683 12.2094 26.0902L12.1845 26.2314C12.0049 27.2456 11.8977 28.2295 11.866 29.1556C11.8288 30.2422 12.5032 30.4844 13.0982 30.6982L13.1622 30.7212C13.8777 30.9794 14.6781 31.2005 15.609 31.3972C17.5098 31.7985 19.0524 31.99 20.4632 32H20.4669H20.4705C21.8816 31.99 23.4241 31.7985 25.3246 31.3972C26.2557 31.2006 27.056 30.9795 27.7712 30.7213L27.8352 30.6983C28.4303 30.4845 29.1049 30.2424 29.0677 29.1556C29.0361 28.2269 28.9288 27.2431 28.7493 26.2312Z" fill="#8C67F6"/>
<path d="M16.1592 16.8195C16.4408 19.2789 17.5166 22.2732 20.5068 22.273C23.497 22.2728 24.5729 19.2789 24.8545 16.8195C25.2015 13.7898 23.7688 11.5096 20.5068 11.5096C17.2453 11.5095 15.8117 13.7895 16.1592 16.8195Z" fill="#8C67F6"/>
</svg>
