<svg width="20" height="20" viewBox="0 0 20 20" fill="none" xmlns="http://www.w3.org/2000/svg">
<circle cx="10" cy="10" r="8.5" stroke="#BDBDBD" stroke-width="2" stroke-linecap="round"/>
<path d="M6.45868 13.2559C6.89282 13.6319 7.45785 13.8981 8.05606 14.0708C8.66219 14.2458 9.33126 14.3333 10.0001 14.3333C10.6689 14.3333 11.338 14.2458 11.9441 14.0708C12.5423 13.8981 13.1073 13.6319 13.5415 13.2559" stroke="#BDBDBD" stroke-width="2" stroke-linecap="round"/>
<path d="M7.50008 9.41667C8.09839 9.41667 8.58341 8.93164 8.58341 8.33333C8.58341 7.73502 8.09839 7.25 7.50008 7.25C6.90177 7.25 6.41675 7.73502 6.41675 8.33333C6.41675 8.93164 6.90177 9.41667 7.50008 9.41667Z" fill="#BDBDBD" stroke="#BDBDBD" stroke-width="0.5" stroke-linecap="round"/>
<path d="M12.5001 9.41667C13.0984 9.41667 13.5834 8.93164 13.5834 8.33333C13.5834 7.73503 13.0984 7.25 12.5001 7.25C11.9018 7.25 11.4167 7.73503 11.4167 8.33333C11.4167 8.93164 11.9018 9.41667 12.5001 9.41667Z" fill="#BDBDBD" stroke="#BDBDBD" stroke-width="0.5" stroke-linecap="round"/>
</svg>
